<mxfile host="app.diagrams.net" agent="Mozilla/5.0 (Windows NT 10.0; Win64; x64) AppleWebKit/537.36 (KHTML, like Gecko) Chrome/138.0.0.0 Safari/537.36" version="27.2.0">
  <diagram name="PÃ¡gina-1" id="PgiyDoZi2oNCyxuxgAvb">
    <mxGraphModel grid="1" page="1" gridSize="10" guides="1" tooltips="1" connect="1" arrows="1" fold="1" pageScale="1" pageWidth="827" pageHeight="1169" math="0" shadow="0">
      <root>
        <mxCell id="0" />
        <mxCell id="1" parent="0" />
        <mxCell id="_ohf3Tj1k-zlJdjOWujR-1" value="" style="rounded=0;whiteSpace=wrap;html=1;" vertex="1" parent="1">
          <mxGeometry x="420" y="50" width="120" height="60" as="geometry" />
        </mxCell>
        <mxCell id="_ohf3Tj1k-zlJdjOWujR-2" value="" style="rounded=0;whiteSpace=wrap;html=1;" vertex="1" parent="1">
          <mxGeometry x="680" y="50" width="120" height="60" as="geometry" />
        </mxCell>
        <mxCell id="_ohf3Tj1k-zlJdjOWujR-3" value="" style="rounded=0;whiteSpace=wrap;html=1;" vertex="1" parent="1">
          <mxGeometry x="940" y="50" width="120" height="60" as="geometry" />
        </mxCell>
        <mxCell id="_ohf3Tj1k-zlJdjOWujR-4" value="" style="endArrow=none;dashed=1;html=1;rounded=0;entryX=0.5;entryY=1;entryDx=0;entryDy=0;" edge="1" parent="1" target="_ohf3Tj1k-zlJdjOWujR-1">
          <mxGeometry width="50" height="50" relative="1" as="geometry">
            <mxPoint x="480" y="270" as="sourcePoint" />
            <mxPoint x="750" y="480" as="targetPoint" />
            <Array as="points" />
          </mxGeometry>
        </mxCell>
        <mxCell id="_ohf3Tj1k-zlJdjOWujR-5" value="" style="endArrow=none;dashed=1;html=1;rounded=0;entryX=0.5;entryY=1;entryDx=0;entryDy=0;" edge="1" parent="1" source="_ohf3Tj1k-zlJdjOWujR-12">
          <mxGeometry width="50" height="50" relative="1" as="geometry">
            <mxPoint x="739" y="870" as="sourcePoint" />
            <mxPoint x="739" y="110" as="targetPoint" />
            <Array as="points" />
          </mxGeometry>
        </mxCell>
        <mxCell id="_ohf3Tj1k-zlJdjOWujR-6" value="" style="endArrow=none;dashed=1;html=1;rounded=0;entryX=0.5;entryY=1;entryDx=0;entryDy=0;" edge="1" parent="1" source="_ohf3Tj1k-zlJdjOWujR-45">
          <mxGeometry width="50" height="50" relative="1" as="geometry">
            <mxPoint x="999" y="870" as="sourcePoint" />
            <mxPoint x="999" y="110" as="targetPoint" />
            <Array as="points" />
          </mxGeometry>
        </mxCell>
        <mxCell id="_ohf3Tj1k-zlJdjOWujR-7" value="" style="endArrow=classic;html=1;rounded=0;" edge="1" parent="1">
          <mxGeometry width="50" height="50" relative="1" as="geometry">
            <mxPoint x="490" y="170" as="sourcePoint" />
            <mxPoint x="740" y="170" as="targetPoint" />
            <Array as="points">
              <mxPoint x="550" y="170" />
            </Array>
          </mxGeometry>
        </mxCell>
        <mxCell id="_ohf3Tj1k-zlJdjOWujR-8" value="&lt;font style=&quot;vertical-align: inherit;&quot;&gt;&lt;font style=&quot;vertical-align: inherit;&quot;&gt;&lt;font style=&quot;vertical-align: inherit;&quot;&gt;&lt;font style=&quot;vertical-align: inherit;&quot;&gt;1. Pulsar el apartado &quot;Administrar cuentas&quot;&lt;/font&gt;&lt;/font&gt;&lt;/font&gt;&lt;/font&gt;" style="text;strokeColor=none;fillColor=none;align=left;verticalAlign=middle;spacingLeft=4;spacingRight=4;overflow=hidden;points=[[0,0.5],[1,0.5]];portConstraint=eastwest;rotatable=0;whiteSpace=wrap;html=1;" vertex="1" parent="1">
          <mxGeometry x="480" y="140" width="260" height="30" as="geometry" />
        </mxCell>
        <mxCell id="_ohf3Tj1k-zlJdjOWujR-11" value="" style="endArrow=none;dashed=1;html=1;rounded=0;entryX=0.5;entryY=1;entryDx=0;entryDy=0;" edge="1" parent="1" source="_ohf3Tj1k-zlJdjOWujR-18" target="_ohf3Tj1k-zlJdjOWujR-12">
          <mxGeometry width="50" height="50" relative="1" as="geometry">
            <mxPoint x="739" y="870" as="sourcePoint" />
            <mxPoint x="739" y="110" as="targetPoint" />
            <Array as="points" />
          </mxGeometry>
        </mxCell>
        <mxCell id="_ohf3Tj1k-zlJdjOWujR-12" value="" style="html=1;points=[[0,0,0,0,5],[0,1,0,0,-5],[1,0,0,0,5],[1,1,0,0,-5]];perimeter=orthogonalPerimeter;outlineConnect=0;targetShapes=umlLifeline;portConstraint=eastwest;newEdgeStyle={&quot;curved&quot;:0,&quot;rounded&quot;:0};" vertex="1" parent="1">
          <mxGeometry x="735" y="170" width="10" height="30" as="geometry" />
        </mxCell>
        <mxCell id="_ohf3Tj1k-zlJdjOWujR-13" value="" style="endArrow=none;dashed=1;html=1;rounded=0;entryX=0.5;entryY=1;entryDx=0;entryDy=0;" edge="1" parent="1" source="_ohf3Tj1k-zlJdjOWujR-55">
          <mxGeometry width="50" height="50" relative="1" as="geometry">
            <mxPoint x="480" y="1241.4285714285713" as="sourcePoint" />
            <mxPoint x="480" y="270" as="targetPoint" />
            <Array as="points" />
          </mxGeometry>
        </mxCell>
        <mxCell id="_ohf3Tj1k-zlJdjOWujR-17" value="" style="endArrow=none;dashed=1;html=1;rounded=0;entryX=0.5;entryY=1;entryDx=0;entryDy=0;" edge="1" parent="1" source="_ohf3Tj1k-zlJdjOWujR-54" target="_ohf3Tj1k-zlJdjOWujR-18">
          <mxGeometry width="50" height="50" relative="1" as="geometry">
            <mxPoint x="739" y="870" as="sourcePoint" />
            <mxPoint x="740" y="200" as="targetPoint" />
            <Array as="points" />
          </mxGeometry>
        </mxCell>
        <mxCell id="_ohf3Tj1k-zlJdjOWujR-18" value="" style="html=1;points=[[0,0,0,0,5],[0,1,0,0,-5],[1,0,0,0,5],[1,1,0,0,-5]];perimeter=orthogonalPerimeter;outlineConnect=0;targetShapes=umlLifeline;portConstraint=eastwest;newEdgeStyle={&quot;curved&quot;:0,&quot;rounded&quot;:0};" vertex="1" parent="1">
          <mxGeometry x="735" y="270" width="10" height="30" as="geometry" />
        </mxCell>
        <mxCell id="_ohf3Tj1k-zlJdjOWujR-19" value="" style="endArrow=classic;html=1;rounded=0;" edge="1" parent="1">
          <mxGeometry width="50" height="50" relative="1" as="geometry">
            <mxPoint x="542.5" y="570" as="sourcePoint" />
            <mxPoint x="735" y="570" as="targetPoint" />
            <Array as="points">
              <mxPoint x="505" y="570" />
              <mxPoint x="545" y="570" />
            </Array>
          </mxGeometry>
        </mxCell>
        <mxCell id="_ohf3Tj1k-zlJdjOWujR-21" value="&lt;font style=&quot;vertical-align: inherit;&quot;&gt;&lt;font style=&quot;vertical-align: inherit;&quot;&gt;Administrador&lt;/font&gt;&lt;/font&gt;" style="text;strokeColor=none;fillColor=none;align=left;verticalAlign=middle;spacingLeft=4;spacingRight=4;overflow=hidden;points=[[0,0.5],[1,0.5]];portConstraint=eastwest;rotatable=0;whiteSpace=wrap;html=1;" vertex="1" parent="1">
          <mxGeometry x="440" y="65" width="150" height="30" as="geometry" />
        </mxCell>
        <mxCell id="_ohf3Tj1k-zlJdjOWujR-22" value="&lt;font style=&quot;vertical-align: inherit;&quot;&gt;&lt;font style=&quot;vertical-align: inherit;&quot;&gt;Sistema&lt;/font&gt;&lt;/font&gt;" style="text;strokeColor=none;fillColor=none;align=left;verticalAlign=middle;spacingLeft=4;spacingRight=4;overflow=hidden;points=[[0,0.5],[1,0.5]];portConstraint=eastwest;rotatable=0;whiteSpace=wrap;html=1;" vertex="1" parent="1">
          <mxGeometry x="714" y="65" width="150" height="30" as="geometry" />
        </mxCell>
        <mxCell id="_ohf3Tj1k-zlJdjOWujR-23" value="" style="endArrow=classic;html=1;rounded=0;" edge="1" parent="1">
          <mxGeometry width="50" height="50" relative="1" as="geometry">
            <mxPoint x="532.5" y="510" as="sourcePoint" />
            <mxPoint x="735" y="510" as="targetPoint" />
            <Array as="points">
              <mxPoint x="490" y="510" />
            </Array>
          </mxGeometry>
        </mxCell>
        <mxCell id="_ohf3Tj1k-zlJdjOWujR-25" value="&lt;font style=&quot;vertical-align: inherit;&quot;&gt;&lt;font style=&quot;vertical-align: inherit;&quot;&gt;6. Mostrar formulario de&lt;/font&gt;&lt;/font&gt;&lt;div&gt;&lt;font style=&quot;vertical-align: inherit;&quot;&gt;&lt;font style=&quot;vertical-align: inherit;&quot;&gt;&amp;nbsp;estado (Activo/Inactivo)&lt;/font&gt;&lt;/font&gt;&lt;/div&gt;" style="text;strokeColor=none;fillColor=none;align=center;verticalAlign=middle;spacingLeft=4;spacingRight=4;overflow=hidden;points=[[0,0.5],[1,0.5]];portConstraint=eastwest;rotatable=0;whiteSpace=wrap;html=1;" vertex="1" parent="1">
          <mxGeometry x="470" y="420" width="270" height="30" as="geometry" />
        </mxCell>
        <mxCell id="_ohf3Tj1k-zlJdjOWujR-30" value="" style="endArrow=classic;html=1;rounded=0;entryX=0;entryY=0;entryDx=0;entryDy=5;entryPerimeter=0;" edge="1" parent="1" target="_ohf3Tj1k-zlJdjOWujR-35">
          <mxGeometry width="50" height="50" relative="1" as="geometry">
            <mxPoint x="750" y="675" as="sourcePoint" />
            <mxPoint x="1005" y="675" as="targetPoint" />
          </mxGeometry>
        </mxCell>
        <mxCell id="_ohf3Tj1k-zlJdjOWujR-31" value="" style="endArrow=none;dashed=1;html=1;rounded=0;entryX=0.5;entryY=1;entryDx=0;entryDy=0;exitX=0.5;exitY=0;exitDx=0;exitDy=0;" edge="1" parent="1" source="jFbdBQ2sjwbacSTMiI3m-7">
          <mxGeometry width="50" height="50" relative="1" as="geometry">
            <mxPoint x="1000" y="760" as="sourcePoint" />
            <mxPoint x="1000" y="420" as="targetPoint" />
            <Array as="points" />
          </mxGeometry>
        </mxCell>
        <mxCell id="_ohf3Tj1k-zlJdjOWujR-33" value="" style="endArrow=none;dashed=1;html=1;rounded=0;entryX=0.5;entryY=1;entryDx=0;entryDy=0;" edge="1" parent="1" source="_ohf3Tj1k-zlJdjOWujR-64" target="_ohf3Tj1k-zlJdjOWujR-34">
          <mxGeometry width="50" height="50" relative="1" as="geometry">
            <mxPoint x="740" y="750" as="sourcePoint" />
            <mxPoint x="740" y="350" as="targetPoint" />
            <Array as="points" />
          </mxGeometry>
        </mxCell>
        <mxCell id="_ohf3Tj1k-zlJdjOWujR-34" value="" style="html=1;points=[[0,0,0,0,5],[0,1,0,0,-5],[1,0,0,0,5],[1,1,0,0,-5]];perimeter=orthogonalPerimeter;outlineConnect=0;targetShapes=umlLifeline;portConstraint=eastwest;newEdgeStyle={&quot;curved&quot;:0,&quot;rounded&quot;:0};" vertex="1" parent="1">
          <mxGeometry x="735" y="500" width="10" height="30" as="geometry" />
        </mxCell>
        <mxCell id="_ohf3Tj1k-zlJdjOWujR-35" value="" style="html=1;points=[[0,0,0,0,5],[0,1,0,0,-5],[1,0,0,0,5],[1,1,0,0,-5]];perimeter=orthogonalPerimeter;outlineConnect=0;targetShapes=umlLifeline;portConstraint=eastwest;newEdgeStyle={&quot;curved&quot;:0,&quot;rounded&quot;:0};" vertex="1" parent="1">
          <mxGeometry x="995" y="675" width="10" height="30" as="geometry" />
        </mxCell>
        <mxCell id="_ohf3Tj1k-zlJdjOWujR-36" value="" style="html=1;verticalAlign=bottom;endArrow=open;endSize=8;curved=0;rounded=0;fontSize=12;entryX=1;entryY=0;entryDx=0;entryDy=5;entryPerimeter=0;align=left;" edge="1" parent="1">
          <mxGeometry x="0.0526" relative="1" as="geometry">
            <mxPoint x="1000" y="730" as="sourcePoint" />
            <mxPoint x="742.5" y="725" as="targetPoint" />
            <mxPoint as="offset" />
          </mxGeometry>
        </mxCell>
        <mxCell id="_ohf3Tj1k-zlJdjOWujR-39" value="&lt;font style=&quot;vertical-align: inherit;&quot;&gt;&lt;font style=&quot;vertical-align: inherit;&quot;&gt;9. Guardar el nuevo estado de cuenta&lt;/font&gt;&lt;/font&gt;" style="text;whiteSpace=wrap;html=1;" vertex="1" parent="1">
          <mxGeometry x="755" y="650" width="225" height="20" as="geometry" />
        </mxCell>
        <mxCell id="_ohf3Tj1k-zlJdjOWujR-40" value="&lt;font style=&quot;vertical-align: inherit;&quot;&gt;&lt;font style=&quot;vertical-align: inherit;&quot;&gt;&lt;font style=&quot;vertical-align: inherit;&quot;&gt;&lt;font style=&quot;vertical-align: inherit;&quot;&gt;10. Confirma el estado se&lt;/font&gt;&lt;/font&gt;&lt;/font&gt;&lt;/font&gt;&lt;div style=&quot;&quot;&gt;&lt;font style=&quot;vertical-align: inherit;&quot;&gt;&lt;font style=&quot;vertical-align: inherit;&quot;&gt;&lt;font style=&quot;vertical-align: inherit;&quot;&gt;&lt;font style=&quot;vertical-align: inherit;&quot;&gt;&amp;nbsp;guarda correctamente&lt;/font&gt;&lt;/font&gt;&lt;/font&gt;&lt;/font&gt;&lt;/div&gt;" style="text;whiteSpace=wrap;html=1;align=center;" vertex="1" parent="1">
          <mxGeometry x="745" y="685" width="260" height="40" as="geometry" />
        </mxCell>
        <mxCell id="_ohf3Tj1k-zlJdjOWujR-42" value="&lt;font style=&quot;vertical-align: inherit;&quot;&gt;&lt;font style=&quot;vertical-align: inherit;&quot;&gt;Base de datos&lt;/font&gt;&lt;/font&gt;" style="text;strokeColor=none;fillColor=none;align=left;verticalAlign=middle;spacingLeft=4;spacingRight=4;overflow=hidden;points=[[0,0.5],[1,0.5]];portConstraint=eastwest;rotatable=0;whiteSpace=wrap;html=1;" vertex="1" parent="1">
          <mxGeometry x="960" y="65" width="90" height="30" as="geometry" />
        </mxCell>
        <mxCell id="_ohf3Tj1k-zlJdjOWujR-43" value="" style="endArrow=classic;html=1;rounded=0;" edge="1" parent="1">
          <mxGeometry width="50" height="50" relative="1" as="geometry">
            <mxPoint x="740" y="220" as="sourcePoint" />
            <mxPoint x="1000" y="220" as="targetPoint" />
            <Array as="points">
              <mxPoint x="775" y="220" />
            </Array>
          </mxGeometry>
        </mxCell>
        <mxCell id="_ohf3Tj1k-zlJdjOWujR-44" value="&lt;font style=&quot;vertical-align: inherit;&quot;&gt;&lt;font style=&quot;vertical-align: inherit;&quot;&gt;2. Solicitar lista de cuentas de usuarios&lt;/font&gt;&lt;/font&gt;" style="text;strokeColor=none;fillColor=none;align=left;verticalAlign=middle;spacingLeft=4;spacingRight=4;overflow=hidden;points=[[0,0.5],[1,0.5]];portConstraint=eastwest;rotatable=0;whiteSpace=wrap;html=1;" vertex="1" parent="1">
          <mxGeometry x="760" y="190" width="230" height="30" as="geometry" />
        </mxCell>
        <mxCell id="_ohf3Tj1k-zlJdjOWujR-46" value="" style="endArrow=none;dashed=1;html=1;rounded=0;entryX=0.5;entryY=1;entryDx=0;entryDy=0;" edge="1" parent="1" target="_ohf3Tj1k-zlJdjOWujR-45">
          <mxGeometry width="50" height="50" relative="1" as="geometry">
            <mxPoint x="1000" y="420" as="sourcePoint" />
            <mxPoint x="999" y="110" as="targetPoint" />
            <Array as="points" />
          </mxGeometry>
        </mxCell>
        <mxCell id="_ohf3Tj1k-zlJdjOWujR-45" value="" style="html=1;points=[[0,0,0,0,5],[0,1,0,0,-5],[1,0,0,0,5],[1,1,0,0,-5]];perimeter=orthogonalPerimeter;outlineConnect=0;targetShapes=umlLifeline;portConstraint=eastwest;newEdgeStyle={&quot;curved&quot;:0,&quot;rounded&quot;:0};" vertex="1" parent="1">
          <mxGeometry x="995" y="220" width="10" height="30" as="geometry" />
        </mxCell>
        <mxCell id="_ohf3Tj1k-zlJdjOWujR-47" value="" style="endArrow=classic;html=1;rounded=0;" edge="1" parent="1">
          <mxGeometry width="50" height="50" relative="1" as="geometry">
            <mxPoint x="875" y="280" as="sourcePoint" />
            <mxPoint x="745" y="280" as="targetPoint" />
            <Array as="points">
              <mxPoint x="1000" y="280" />
            </Array>
          </mxGeometry>
        </mxCell>
        <mxCell id="_ohf3Tj1k-zlJdjOWujR-48" value="&lt;font style=&quot;vertical-align: inherit;&quot;&gt;&lt;font style=&quot;vertical-align: inherit;&quot;&gt;3. Lista de cuentas&lt;/font&gt;&lt;/font&gt;" style="text;strokeColor=none;fillColor=none;align=left;verticalAlign=middle;spacingLeft=4;spacingRight=4;overflow=hidden;points=[[0,0.5],[1,0.5]];portConstraint=eastwest;rotatable=0;whiteSpace=wrap;html=1;" vertex="1" parent="1">
          <mxGeometry x="820" y="250" width="120" height="30" as="geometry" />
        </mxCell>
        <mxCell id="_ohf3Tj1k-zlJdjOWujR-49" value="" style="endArrow=classic;html=1;rounded=0;" edge="1" parent="1">
          <mxGeometry width="50" height="50" relative="1" as="geometry">
            <mxPoint x="610" y="340" as="sourcePoint" />
            <mxPoint x="480" y="340" as="targetPoint" />
            <Array as="points">
              <mxPoint x="740" y="340" />
            </Array>
          </mxGeometry>
        </mxCell>
        <mxCell id="_ohf3Tj1k-zlJdjOWujR-50" value="&lt;font style=&quot;vertical-align: inherit;&quot;&gt;&lt;font style=&quot;vertical-align: inherit;&quot;&gt;&lt;font style=&quot;vertical-align: inherit;&quot;&gt;&lt;font style=&quot;vertical-align: inherit;&quot;&gt;4. Mostrar listado de cuentas&lt;/font&gt;&lt;/font&gt;&lt;/font&gt;&lt;/font&gt;" style="text;strokeColor=none;fillColor=none;align=left;verticalAlign=middle;spacingLeft=4;spacingRight=4;overflow=hidden;points=[[0,0.5],[1,0.5]];portConstraint=eastwest;rotatable=0;whiteSpace=wrap;html=1;" vertex="1" parent="1">
          <mxGeometry x="520" y="310" width="230" height="30" as="geometry" />
        </mxCell>
        <mxCell id="_ohf3Tj1k-zlJdjOWujR-28" value="&lt;font style=&quot;vertical-align: inherit;&quot;&gt;&lt;font style=&quot;vertical-align: inherit;&quot;&gt;&lt;font style=&quot;vertical-align: inherit;&quot;&gt;&lt;font style=&quot;vertical-align: inherit;&quot;&gt;&lt;font style=&quot;vertical-align: inherit;&quot;&gt;&lt;font style=&quot;vertical-align: inherit;&quot;&gt;5. Pulsa el botÃ³n &quot;Editar estado de cuenta&quot;&amp;nbsp;&lt;/font&gt;&lt;/font&gt;&lt;/font&gt;&lt;/font&gt;&lt;/font&gt;&lt;/font&gt;" style="text;whiteSpace=wrap;html=1;" vertex="1" parent="1">
          <mxGeometry x="485" y="380" width="240" height="40" as="geometry" />
        </mxCell>
        <mxCell id="_ohf3Tj1k-zlJdjOWujR-56" value="" style="endArrow=none;dashed=1;html=1;rounded=0;entryX=0.5;entryY=1;entryDx=0;entryDy=0;" edge="1" parent="1" source="_ohf3Tj1k-zlJdjOWujR-62" target="_ohf3Tj1k-zlJdjOWujR-55">
          <mxGeometry width="50" height="50" relative="1" as="geometry">
            <mxPoint x="480" y="695" as="sourcePoint" />
            <mxPoint x="480" y="270" as="targetPoint" />
            <Array as="points" />
          </mxGeometry>
        </mxCell>
        <mxCell id="_ohf3Tj1k-zlJdjOWujR-55" value="" style="html=1;points=[[0,0,0,0,5],[0,1,0,0,-5],[1,0,0,0,5],[1,1,0,0,-5]];perimeter=orthogonalPerimeter;outlineConnect=0;targetShapes=umlLifeline;portConstraint=eastwest;newEdgeStyle={&quot;curved&quot;:0,&quot;rounded&quot;:0};" vertex="1" parent="1">
          <mxGeometry x="475" y="340" width="10" height="30" as="geometry" />
        </mxCell>
        <mxCell id="_ohf3Tj1k-zlJdjOWujR-57" value="" style="endArrow=none;dashed=1;html=1;rounded=0;entryX=0.5;entryY=1;entryDx=0;entryDy=0;" edge="1" parent="1" source="_ohf3Tj1k-zlJdjOWujR-34" target="_ohf3Tj1k-zlJdjOWujR-54">
          <mxGeometry width="50" height="50" relative="1" as="geometry">
            <mxPoint x="740" y="550" as="sourcePoint" />
            <mxPoint x="740" y="320" as="targetPoint" />
            <Array as="points" />
          </mxGeometry>
        </mxCell>
        <mxCell id="_ohf3Tj1k-zlJdjOWujR-54" value="" style="html=1;points=[[0,0,0,0,5],[0,1,0,0,-5],[1,0,0,0,5],[1,1,0,0,-5]];perimeter=orthogonalPerimeter;outlineConnect=0;targetShapes=umlLifeline;portConstraint=eastwest;newEdgeStyle={&quot;curved&quot;:0,&quot;rounded&quot;:0};" vertex="1" parent="1">
          <mxGeometry x="735" y="400" width="10" height="30" as="geometry" />
        </mxCell>
        <mxCell id="_ohf3Tj1k-zlJdjOWujR-58" value="" style="endArrow=classic;html=1;rounded=0;" edge="1" parent="1">
          <mxGeometry width="50" height="50" relative="1" as="geometry">
            <mxPoint x="610" y="450" as="sourcePoint" />
            <mxPoint x="480" y="450" as="targetPoint" />
            <Array as="points">
              <mxPoint x="740" y="450" />
            </Array>
          </mxGeometry>
        </mxCell>
        <mxCell id="_ohf3Tj1k-zlJdjOWujR-60" value="" style="endArrow=classic;html=1;rounded=0;" edge="1" parent="1">
          <mxGeometry width="50" height="50" relative="1" as="geometry">
            <mxPoint x="480" y="404.5" as="sourcePoint" />
            <mxPoint x="740" y="405" as="targetPoint" />
            <Array as="points">
              <mxPoint x="515" y="404.5" />
              <mxPoint x="555" y="404.5" />
            </Array>
          </mxGeometry>
        </mxCell>
        <mxCell id="_ohf3Tj1k-zlJdjOWujR-63" value="" style="endArrow=none;dashed=1;html=1;rounded=0;entryX=0.5;entryY=1;entryDx=0;entryDy=0;exitX=0.5;exitY=0;exitDx=0;exitDy=0;" edge="1" parent="1" source="jFbdBQ2sjwbacSTMiI3m-15" target="_ohf3Tj1k-zlJdjOWujR-62">
          <mxGeometry width="50" height="50" relative="1" as="geometry">
            <mxPoint x="480" y="750" as="sourcePoint" />
            <mxPoint x="480" y="380" as="targetPoint" />
            <Array as="points" />
          </mxGeometry>
        </mxCell>
        <mxCell id="_ohf3Tj1k-zlJdjOWujR-62" value="" style="html=1;points=[[0,0,0,0,5],[0,1,0,0,-5],[1,0,0,0,5],[1,1,0,0,-5]];perimeter=orthogonalPerimeter;outlineConnect=0;targetShapes=umlLifeline;portConstraint=eastwest;newEdgeStyle={&quot;curved&quot;:0,&quot;rounded&quot;:0};" vertex="1" parent="1">
          <mxGeometry x="475" y="440" width="10" height="30" as="geometry" />
        </mxCell>
        <mxCell id="_ohf3Tj1k-zlJdjOWujR-65" value="" style="endArrow=none;dashed=1;html=1;rounded=0;exitX=0.5;exitY=0;exitDx=0;exitDy=0;" edge="1" parent="1" source="jFbdBQ2sjwbacSTMiI3m-13" target="KUz37Iq7oThb3nsHl9yL-3">
          <mxGeometry width="50" height="50" relative="1" as="geometry">
            <mxPoint x="740" y="865" as="sourcePoint" />
            <mxPoint x="740" y="705" as="targetPoint" />
            <Array as="points" />
          </mxGeometry>
        </mxCell>
        <mxCell id="_ohf3Tj1k-zlJdjOWujR-64" value="" style="html=1;points=[[0,0,0,0,5],[0,1,0,0,-5],[1,0,0,0,5],[1,1,0,0,-5]];perimeter=orthogonalPerimeter;outlineConnect=0;targetShapes=umlLifeline;portConstraint=eastwest;newEdgeStyle={&quot;curved&quot;:0,&quot;rounded&quot;:0};" vertex="1" parent="1">
          <mxGeometry x="735" y="560" width="10" height="30" as="geometry" />
        </mxCell>
        <mxCell id="_ohf3Tj1k-zlJdjOWujR-69" value="" style="html=1;verticalAlign=bottom;endArrow=open;dashed=1;endSize=8;curved=0;rounded=0;fontSize=12;entryX=1;entryY=0;entryDx=0;entryDy=5;entryPerimeter=0;align=left;" edge="1" parent="1">
          <mxGeometry x="0.0526" relative="1" as="geometry">
            <mxPoint x="730" y="765" as="sourcePoint" />
            <mxPoint x="480" y="765" as="targetPoint" />
            <mxPoint as="offset" />
          </mxGeometry>
        </mxCell>
        <mxCell id="_ohf3Tj1k-zlJdjOWujR-70" value="&lt;font style=&quot;vertical-align: inherit;&quot;&gt;&lt;font style=&quot;vertical-align: inherit;&quot;&gt;11. NotificaciÃ³n de Ã©xito: Cuenta actualizada correctamente&lt;/font&gt;&lt;/font&gt;" style="text;whiteSpace=wrap;html=1;align=center;" vertex="1" parent="1">
          <mxGeometry x="499" y="725" width="215" height="20" as="geometry" />
        </mxCell>
        <mxCell id="_ohf3Tj1k-zlJdjOWujR-29" value="&lt;font style=&quot;vertical-align: inherit;&quot;&gt;&lt;font style=&quot;vertical-align: inherit;&quot;&gt;&lt;font style=&quot;vertical-align: inherit;&quot;&gt;&lt;font style=&quot;vertical-align: inherit;&quot;&gt;&lt;font style=&quot;vertical-align: inherit;&quot;&gt;&lt;font style=&quot;vertical-align: inherit;&quot;&gt;7. Seleccionar nuevo estado&lt;/font&gt;&lt;/font&gt;&lt;/font&gt;&lt;/font&gt;&lt;/font&gt;&lt;/font&gt;" style="text;strokeColor=none;fillColor=none;align=left;verticalAlign=middle;spacingLeft=4;spacingRight=4;overflow=hidden;points=[[0,0.5],[1,0.5]];portConstraint=eastwest;rotatable=0;whiteSpace=wrap;html=1;" vertex="1" parent="1">
          <mxGeometry x="520" y="480" width="170" height="30" as="geometry" />
        </mxCell>
        <mxCell id="jFbdBQ2sjwbacSTMiI3m-5" value="" style="rounded=0;whiteSpace=wrap;html=1;" vertex="1" parent="1">
          <mxGeometry x="420" y="825" width="120" height="60" as="geometry" />
        </mxCell>
        <mxCell id="jFbdBQ2sjwbacSTMiI3m-6" value="" style="rounded=0;whiteSpace=wrap;html=1;" vertex="1" parent="1">
          <mxGeometry x="680" y="825" width="120" height="60" as="geometry" />
        </mxCell>
        <mxCell id="jFbdBQ2sjwbacSTMiI3m-7" value="" style="rounded=0;whiteSpace=wrap;html=1;" vertex="1" parent="1">
          <mxGeometry x="940" y="825" width="120" height="60" as="geometry" />
        </mxCell>
        <mxCell id="jFbdBQ2sjwbacSTMiI3m-8" value="&lt;font style=&quot;vertical-align: inherit;&quot;&gt;&lt;font style=&quot;vertical-align: inherit;&quot;&gt;Administrador&lt;/font&gt;&lt;/font&gt;" style="text;strokeColor=none;fillColor=none;align=left;verticalAlign=middle;spacingLeft=4;spacingRight=4;overflow=hidden;points=[[0,0.5],[1,0.5]];portConstraint=eastwest;rotatable=0;whiteSpace=wrap;html=1;" vertex="1" parent="1">
          <mxGeometry x="440" y="840" width="80" height="30" as="geometry" />
        </mxCell>
        <mxCell id="jFbdBQ2sjwbacSTMiI3m-9" value="&lt;font style=&quot;vertical-align: inherit;&quot;&gt;&lt;font style=&quot;vertical-align: inherit;&quot;&gt;Sistema&lt;/font&gt;&lt;/font&gt;" style="text;strokeColor=none;fillColor=none;align=left;verticalAlign=middle;spacingLeft=4;spacingRight=4;overflow=hidden;points=[[0,0.5],[1,0.5]];portConstraint=eastwest;rotatable=0;whiteSpace=wrap;html=1;" vertex="1" parent="1">
          <mxGeometry x="712" y="840" width="56" height="30" as="geometry" />
        </mxCell>
        <mxCell id="jFbdBQ2sjwbacSTMiI3m-11" value="&lt;font style=&quot;vertical-align: inherit;&quot;&gt;&lt;font style=&quot;vertical-align: inherit;&quot;&gt;Base de datos&lt;/font&gt;&lt;/font&gt;" style="text;strokeColor=none;fillColor=none;align=left;verticalAlign=middle;spacingLeft=4;spacingRight=4;overflow=hidden;points=[[0,0.5],[1,0.5]];portConstraint=eastwest;rotatable=0;whiteSpace=wrap;html=1;" vertex="1" parent="1">
          <mxGeometry x="955" y="840" width="90" height="30" as="geometry" />
        </mxCell>
        <mxCell id="_ohf3Tj1k-zlJdjOWujR-26" value="&lt;font style=&quot;vertical-align: inherit;&quot;&gt;&lt;font style=&quot;vertical-align: inherit;&quot;&gt;8. Pulsar botÃ³n &quot;Cambiar&quot;&lt;/font&gt;&lt;/font&gt;" style="text;strokeColor=none;fillColor=none;align=left;verticalAlign=middle;spacingLeft=4;spacingRight=4;overflow=hidden;points=[[0,0.5],[1,0.5]];portConstraint=eastwest;rotatable=0;whiteSpace=wrap;html=1;" vertex="1" parent="1">
          <mxGeometry x="525" y="540" width="230" height="30" as="geometry" />
        </mxCell>
        <mxCell id="jFbdBQ2sjwbacSTMiI3m-14" value="" style="endArrow=none;dashed=1;html=1;rounded=0;entryX=0.5;entryY=1;entryDx=0;entryDy=0;exitX=0.5;exitY=0;exitDx=0;exitDy=0;" edge="1" parent="1" source="jFbdBQ2sjwbacSTMiI3m-6" target="jFbdBQ2sjwbacSTMiI3m-13">
          <mxGeometry width="50" height="50" relative="1" as="geometry">
            <mxPoint x="740" y="825" as="sourcePoint" />
            <mxPoint x="740" y="655" as="targetPoint" />
            <Array as="points" />
          </mxGeometry>
        </mxCell>
        <mxCell id="jFbdBQ2sjwbacSTMiI3m-13" value="" style="html=1;points=[[0,0,0,0,5],[0,1,0,0,-5],[1,0,0,0,5],[1,1,0,0,-5]];perimeter=orthogonalPerimeter;outlineConnect=0;targetShapes=umlLifeline;portConstraint=eastwest;newEdgeStyle={&quot;curved&quot;:0,&quot;rounded&quot;:0};" vertex="1" parent="1">
          <mxGeometry x="735" y="715" width="10" height="30" as="geometry" />
        </mxCell>
        <mxCell id="jFbdBQ2sjwbacSTMiI3m-16" value="" style="endArrow=none;dashed=1;html=1;rounded=0;entryX=0.5;entryY=1;entryDx=0;entryDy=0;exitX=0.5;exitY=0;exitDx=0;exitDy=0;" edge="1" parent="1" source="jFbdBQ2sjwbacSTMiI3m-5" target="jFbdBQ2sjwbacSTMiI3m-15">
          <mxGeometry width="50" height="50" relative="1" as="geometry">
            <mxPoint x="480" y="825" as="sourcePoint" />
            <mxPoint x="480" y="535" as="targetPoint" />
            <Array as="points" />
          </mxGeometry>
        </mxCell>
        <mxCell id="jFbdBQ2sjwbacSTMiI3m-15" value="" style="html=1;points=[[0,0,0,0,5],[0,1,0,0,-5],[1,0,0,0,5],[1,1,0,0,-5]];perimeter=orthogonalPerimeter;outlineConnect=0;targetShapes=umlLifeline;portConstraint=eastwest;newEdgeStyle={&quot;curved&quot;:0,&quot;rounded&quot;:0};" vertex="1" parent="1">
          <mxGeometry x="475" y="755" width="10" height="30" as="geometry" />
        </mxCell>
        <mxCell id="b_Nh6ar1nYfNZEpSVITS-1" value="ESTADO DE CUENTA" style="rounded=0;whiteSpace=wrap;html=1;" vertex="1" parent="1">
          <mxGeometry x="430" y="-50" width="650" height="60" as="geometry" />
        </mxCell>
        <mxCell id="KUz37Iq7oThb3nsHl9yL-1" value="" style="endArrow=classic;html=1;rounded=0;" edge="1" parent="1">
          <mxGeometry width="50" height="50" relative="1" as="geometry">
            <mxPoint x="542.5" y="624" as="sourcePoint" />
            <mxPoint x="735" y="624" as="targetPoint" />
            <Array as="points">
              <mxPoint x="490" y="624" />
              <mxPoint x="545" y="624" />
            </Array>
          </mxGeometry>
        </mxCell>
        <mxCell id="KUz37Iq7oThb3nsHl9yL-2" value="" style="endArrow=none;dashed=1;html=1;rounded=0;entryX=0.5;entryY=1;entryDx=0;entryDy=0;" edge="1" parent="1" source="KUz37Iq7oThb3nsHl9yL-3">
          <mxGeometry width="50" height="50" relative="1" as="geometry">
            <mxPoint x="740" y="804" as="sourcePoint" />
            <mxPoint x="740" y="584" as="targetPoint" />
            <Array as="points" />
          </mxGeometry>
        </mxCell>
        <mxCell id="KUz37Iq7oThb3nsHl9yL-3" value="" style="html=1;points=[[0,0,0,0,5],[0,1,0,0,-5],[1,0,0,0,5],[1,1,0,0,-5]];perimeter=orthogonalPerimeter;outlineConnect=0;targetShapes=umlLifeline;portConstraint=eastwest;newEdgeStyle={&quot;curved&quot;:0,&quot;rounded&quot;:0};" vertex="1" parent="1">
          <mxGeometry x="735" y="614" width="10" height="30" as="geometry" />
        </mxCell>
        <mxCell id="KUz37Iq7oThb3nsHl9yL-4" value="&lt;font style=&quot;vertical-align: inherit;&quot;&gt;&lt;font style=&quot;vertical-align: inherit;&quot;&gt;9. Pulsar botÃ³n &quot;Confirmar&quot;&lt;/font&gt;&lt;/font&gt;" style="text;strokeColor=none;fillColor=none;align=left;verticalAlign=middle;spacingLeft=4;spacingRight=4;overflow=hidden;points=[[0,0.5],[1,0.5]];portConstraint=eastwest;rotatable=0;whiteSpace=wrap;html=1;" vertex="1" parent="1">
          <mxGeometry x="531.5" y="590" width="165" height="30" as="geometry" />
        </mxCell>
      </root>
    </mxGraphModel>
  </diagram>
</mxfile>
